<?xml version="1.0" encoding="UTF-8" standalone="no"?>
<!-- Created with Inkscape (http://www.inkscape.org/) -->

<svg
   width="1024"
   height="1024"
   viewBox="0 0 1024 1024"
   version="1.1"
   id="svg5"
   inkscape:version="1.2.2 (732a01da63, 2022-12-09)"
   xml:space="preserve"
   sodipodi:docname="nomai.svg"
   xmlns:inkscape="http://www.inkscape.org/namespaces/inkscape"
   xmlns:sodipodi="http://sodipodi.sourceforge.net/DTD/sodipodi-0.dtd"
   xmlns="http://www.w3.org/2000/svg"
   xmlns:svg="http://www.w3.org/2000/svg"><sodipodi:namedview
     id="namedview7"
     pagecolor="#505050"
     bordercolor="#ffffff"
     borderopacity="1"
     inkscape:showpageshadow="false"
     inkscape:pageopacity="0"
     inkscape:pagecheckerboard="1"
     inkscape:deskcolor="#505050"
     inkscape:document-units="px"
     showgrid="false"
     inkscape:zoom="1.0029297"
     inkscape:cx="352.46738"
     inkscape:cy="541.41383"
     inkscape:window-width="2560"
     inkscape:window-height="1369"
     inkscape:window-x="-8"
     inkscape:window-y="-8"
     inkscape:window-maximized="1"
     inkscape:current-layer="layer1" /><defs
     id="defs2" /><g
     inkscape:label="Layer 1"
     inkscape:groupmode="layer"
     id="layer1"><path
       style="fill:#ffffff;stroke-width:1.18685"
       d="m 317.84202,983.72057 -9.49477,-0.91336 -18.39612,-7.88587 -18.39612,-7.88587 -5.93423,-2.77165 -5.93423,-2.77165 -5.34081,-2.37543 -5.34081,-2.37543 -14.83558,-6.52922 -14.83558,-6.52924 -4.27019,-1.7764 -4.27019,-1.7764 -4.63116,-4.70829 -4.63116,-4.70829 -8.90134,-9.8983 -8.90135,-9.89829 -8.43622,-8.608 -8.43624,-8.60802 -2.8388,-0.64742 -2.83882,-0.64741 -7.7145,-1.31349 -7.71451,-1.31349 -3.18426,-0.60069 -3.18426,-0.6007 -2.28452,1.60658 -2.28453,1.60659 -8.17995,7.27868 -8.17994,7.27868 -7.12108,5.74914 -7.12108,5.74915 -2.95499,2.69789 -2.954982,2.69789 H 96.349769 94.39984 l -5.463161,-6.23094 -5.463172,-6.23095 0.03074,-1.78027 0.03074,-1.78027 6.015935,-4.74738 6.015922,-4.74739 14.757246,-13.81935 14.75725,-13.81934 4.39971,-3.0476 4.39971,-3.04759 15.429,1.7082 15.42901,1.7082 3.18371,0.69657 3.1837,0.69659 4.52874,5.56081 4.52872,5.56082 1.78233,2.37369 1.78234,2.37369 9.49477,9.49477 9.49477,9.49477 7.03681,5.92041 7.03681,5.92042 4.83166,3.51535 4.83165,3.51536 10.08819,6.67187 10.0882,6.67187 5.3408,2.52308 5.34081,2.52308 14.40977,5.36872 14.40976,5.36872 7.54689,2.30435 7.5469,2.30436 6.52765,1.96722 6.52766,1.96722 19.58296,2.87927 19.58297,2.87925 17.8027,0.0924 17.80269,0.0925 5.34081,0.80215 5.34081,0.80217 v 8.30792 8.30793 l -36.19882,0.13454 -36.19881,0.13453 -9.49477,-0.91335 z m 307.45169,-0.24586 -0.46046,-1.48355 -0.7086,-6.06948 -0.70859,-6.06947 1.84173,-1.52852 1.84175,-1.52851 25.7719,-0.89236 25.77188,-0.89236 12.58953,-1.86889 12.58953,-1.8689 7.58686,-1.89597 7.58686,-1.89599 4.15396,-0.96698 4.15396,-0.96698 15.429,-5.5985 15.42901,-5.59849 5.93423,-2.1694 5.93423,-2.16939 4.15396,-2.03397 4.15397,-2.03395 7.33374,-5.16354 7.33377,-5.16356 h 0.84084 0.84086 l 10.76046,-8.49959 10.76049,-8.49957 4.20842,-3.65356 4.20842,-3.65355 7.71451,-7.86626 7.7145,-7.86626 6.9303,-8.39389 6.93033,-8.39388 3.15787,-0.69091 3.15789,-0.6909 15.33879,-1.69724 15.33879,-1.69723 1.44634,0.83355 1.44633,0.83355 5.01061,4.15396 5.01061,4.15396 9.06228,8.73605 9.06227,8.73605 9.74611,8.19769 9.74611,8.19768 -0.76428,2.05581 -0.7643,2.05581 -4.71693,5.63752 -4.71693,5.63752 h -1.75823 -1.75824 l -12.00143,-9.68546 -12.00142,-9.68548 -5.34081,-4.96721 -5.34081,-4.9672 -3.94243,-2.69807 -3.94242,-2.69806 -3.77208,0.73668 -3.77207,0.73666 -8.30793,1.56241 -8.30792,1.56242 -2.57786,1.39514 -2.57786,1.39515 -1.5761,1.59256 -1.57611,1.59255 -11.86846,12.90274 -11.86846,12.90275 -6.52766,7.02155 -6.52765,7.02155 -11.08802,5.19497 -11.08803,5.19497 h -0.44856 -0.44855 l -6.26611,2.86305 -6.26613,2.86307 -10.68161,4.71319 -10.68162,4.71319 -7.7145,3.53638 -7.7145,3.53637 -2.96712,0.9011 -2.96712,0.90109 -1.18684,0.89998 -1.18685,0.89996 -8.90135,3.78759 -8.90134,3.78759 -11.86847,1.04968 -11.86846,1.04968 -33.56566,0.0518 -33.56566,0.0517 -0.46045,-1.48355 z m -280.15422,-23.48387 -7.12108,-0.86854 -7.12108,-1.25902 -7.12108,-1.25902 -8.30792,-1.79451 -8.30793,-1.79451 -5.93423,-1.7104 -5.93423,-1.7104 -5.34081,-1.94028 -5.34081,-1.94027 -5.34081,-1.84044 -5.34081,-1.84043 -7.7145,-3.57213 -7.7145,-3.57211 -4.08034,-1.96601 -4.08034,-1.96601 -7.60165,-4.35271 -7.60163,-4.35271 -3.31359,-2.95243 -3.31359,-2.95242 -8.72328,-6.3436 -8.72327,-6.3436 -9.54593,-9.49477 -9.54591,-9.49477 -6.0989,-5.43313 -6.09892,-5.43315 -0.39567,-2.28135 -0.39567,-2.28137 1.55271,0.31976 1.55272,0.31977 4.97494,1.11426 4.97494,1.11427 11.01156,1.90933 11.01156,1.90933 11.27962,1.15398 11.27963,1.15399 0.97469,-0.60239 0.9747,-0.6024 1.34158,-8.64233 1.3416,-8.64234 1.80968,-12.46189 1.80969,-12.46189 1.15835,-7.7145 1.15837,-7.7145 4.33318,-30.26458 4.33319,-30.26458 0.5696,-8.06088 0.5696,-8.06085 6.60982,-5.58788 6.60982,-5.58786 3.74845,-3.56054 3.74845,-3.56054 8.19782,-7.65443 8.19782,-7.65444 15.45699,-14.89565 15.457,-14.89564 8.40327,-7.71692 8.40325,-7.71693 0.84719,-2.66924 0.84719,-2.66924 2.34124,-1.253 2.34126,-1.253 3.21589,3.77927 3.21589,3.77928 2.6704,2.98909 2.67041,2.98911 -0.016,1.31024 -0.016,1.31026 -5.5698,4.74739 -5.56978,4.74738 -6.57932,5.82844 -6.57932,5.82842 -19.73074,19.09535 -19.73074,19.09534 -8.05515,7.7145 -8.05515,7.7145 -2.07906,4.74739 -2.07906,4.74738 -1.20043,8.90135 -1.20042,8.90135 -1.38425,11.27504 -1.38423,11.27504 -1.14385,5.93423 -1.14384,5.93423 -1.78977,12.46189 -1.78975,12.46189 -1.02857,8.30792 -1.02858,8.30793 -1.92062,12.46188 -1.92064,12.46189 -1.66618,11.27504 -1.66618,11.27504 -0.0574,1.4983 -0.0574,1.4983 6.23094,3.95976 6.23094,3.95976 5.34081,2.93768 5.34081,2.93768 6.52765,2.23405 6.52766,2.23405 1.29563,0.93132 1.29564,0.93133 7.20478,2.30164 7.20478,2.30165 14.87414,3.63819 14.87413,3.63821 8.6703,1.40534 8.6703,1.40536 19.58297,0.0832 19.58297,0.0832 0.31528,-32.06767 0.31529,-32.06768 2.0584,-1.16408 2.05841,-1.16409 13.05531,0.59349 13.05531,0.59348 v 43.91332 43.91332 l -1.03545,1.48355 -1.03547,1.48356 -35.75677,-0.18098 -35.75678,-0.18097 -7.12108,-0.86855 z m 253.93296,-0.25775 -0.5711,-1.48826 0.31163,-43.90862 0.31163,-43.90861 12.99986,-0.59343 12.99986,-0.59342 2.13487,1.78027 2.13485,1.78027 0.29429,31.45143 0.29428,31.45143 18.39612,0.15419 18.39612,0.1542 6.52765,-1.16308 6.52766,-1.16306 14.24215,-3.02502 14.24216,-3.02501 10.08819,-3.322 10.0882,-3.32198 5.34081,-1.87733 5.34081,-1.87732 11.97482,-5.98646 11.97482,-5.98647 3.22705,-2.99229 3.22705,-2.99229 -0.67495,-3.15127 -0.67495,-3.15128 -1.13317,-8.30793 -1.13316,-8.30792 -1.27835,-8.90135 -1.27834,-8.90135 -1.0682,-4.80358 -1.0682,-4.8036 -1.98895,-18.93333 -1.98894,-18.93334 -1.00382,-2.3737 -1.00382,-2.37369 -2.35425,-17.8027 -2.35425,-17.80269 -0.78168,-6.52766 -0.78168,-6.52765 -2.35609,-5.54878 -2.35609,-5.54879 -11.46378,-10.91316 -11.46377,-10.91317 -16.61585,-16.21642 -16.61585,-16.2164 -5.44422,-4.7073 -5.44423,-4.7073 -5.07616,-4.12219 -5.07617,-4.12219 -1.87556,-1.37144 -1.87556,-1.37145 1.96337,-2.8143 1.96338,-2.81428 4.80507,-5.34081 4.80505,-5.34081 2.6604,3.38769 2.6604,3.38768 7.19828,7.29393 7.19827,7.29394 21.87947,20.88963 21.87945,20.88964 9.42963,8.1881 9.42962,8.1881 4.55811,4.49559 4.55809,4.4956 -0.66965,1.08352 -0.66964,1.08351 1.81631,12.22358 1.81632,12.22359 1.78956,12.46189 1.78956,12.46188 1.15586,8.30793 1.15587,8.30792 1.73085,11.86847 1.73086,11.86846 1.86449,13.05531 1.86449,13.05531 1.29544,8.10087 1.29543,8.10088 9.07426,-0.78105 9.07425,-0.78104 17.20927,-2.90917 17.20927,-2.90916 3.26383,-0.69178 3.26383,-0.69176 v 1.72713 1.72714 l -16.80023,15.91721 -16.80024,15.9172 -4.26628,2.86712 -4.2663,2.86713 -6.52766,5.50129 -6.52765,5.50131 -5.93423,3.68722 -5.93423,3.68722 -13.88437,6.63719 -13.88437,6.63718 h -1.7713 -1.77131 l -0.73351,1.18685 -0.7335,1.18684 h -2.633 -2.63299 l -2.34106,1.52307 -2.34106,1.52306 -4.15397,1.34664 -4.15396,1.34665 -4.11501,0.84174 -4.115,0.84175 -1.81923,0.97579 -1.81922,0.97578 -7.7145,1.36981 -7.71451,1.36981 -5.93423,1.02889 -5.93423,1.02887 -10.08819,1.20091 -10.0882,1.20091 -34.15907,0.0211 -34.15909,0.0211 -0.5711,-1.48826 z m -240.48906,-31.15704 -0.60042,-0.60043 -25.41128,-5.33704 -25.41128,-5.33702 -8.90134,-1.86985 -8.90135,-1.86987 -6.22874,-1.79722 -6.22875,-1.79721 -0.55489,-0.89785 -0.55491,-0.89786 1.11649,-10.56412 1.11649,-10.56414 2.44486,-28.48431 2.44486,-28.48431 0.634,-4.15396 0.63399,-4.15397 0.99967,-11.86846 0.99968,-11.86846 1.47709,-14.58082 1.47709,-14.58082 8.41778,-7.37583 8.41778,-7.37585 1.29373,-1.18685 1.29372,-1.18684 6.93249,-5.93423 6.93248,-5.93424 6.10573,-5.34081 6.10573,-5.3408 12.9672,-11.26054 12.96721,-11.26055 5.70857,-5.3553 5.70856,-5.35531 2.23712,-1.04227 2.23711,-1.04225 1.74212,0.6685 1.74211,0.66852 6.63134,8.96691 6.63135,8.96692 v 2.42241 2.42241 l -2.07698,0.64282 -2.07699,0.64281 -3.56053,1.55349 -3.56054,1.5535 -7.60031,6.96449 -7.60031,6.96451 -3.19788,2.3737 -3.19787,2.37369 -11.75189,11.44195 -11.75191,11.44193 -7.08298,6.36076 -7.08297,6.36075 -4.48878,4.31104 -4.48877,4.31106 -0.0358,3.40344 -0.0358,3.40346 -2.34162,25.5172 -2.34162,25.5172 -0.65208,4.74738 -0.65208,4.74739 -1.55317,18.39612 -1.55317,18.39612 0.93645,1.04174 0.93646,1.04175 6.31669,1.71052 6.31671,1.71053 14.15607,3.54514 14.15608,3.54513 9.40585,3.62728 9.40587,3.62728 -0.71515,3.57569 -0.71521,3.57569 v 4.51426 4.51425 l -1.86504,1.86505 -1.86505,1.86504 h -0.90426 -0.90427 z m 303.8476,-0.85692 -1.90208,-1.50975 -0.72633,-8.42997 -0.72633,-8.42996 7.40985,-3.13096 7.40983,-3.13095 9.49478,-2.47144 9.49477,-2.47143 10.68161,-2.80868 10.68162,-2.80869 2.75573,-0.82569 2.75574,-0.82567 -0.53406,-9.03733 -0.53405,-9.03732 -2.45936,-26.11062 -2.45934,-26.11062 -2.01708,-18.15416 -2.01708,-18.15416 -4.27289,-4.08054 -4.27292,-4.08054 -11.83325,-10.997 -11.83326,-10.997 -9.53694,-8.90135 -9.53693,-8.90135 -8.0573,-7.12107 -8.05731,-7.12108 -4.99104,-1.93188 -4.99105,-1.93189 -0.37613,-2.49495 -0.37614,-2.49497 6.81491,-9.5186 6.81491,-9.5186 2.46257,0.0148 2.46258,0.0148 4.85822,4.43588 4.85823,4.43588 15.19236,13.05531 15.19237,13.05531 1.31264,1.19919 1.31265,1.19919 17.80269,15.40181 17.8027,15.40182 3.85725,3.69527 3.85725,3.69529 v 5.69659 5.69657 l 1.73166,15.54677 1.73165,15.54675 2.38764,24.33035 2.38765,24.33035 0.74125,10.68161 0.74125,10.68162 1.58745,13.00082 1.58744,13.00083 -0.56387,0.91237 -0.56387,0.91237 -4.99399,1.38089 -4.99399,1.3809 -10.08819,2.12889 -10.0882,2.1289 -17.20927,3.66932 -17.20927,3.66934 -7.7145,1.59243 -7.71451,1.59244 -1.81432,0.78165 -1.81433,0.78166 -1.90206,-1.50974 z m -399.74057,-29.13223 -2.73876,-2.2177 2.5749,-17.12476 2.57489,-17.12477 2.96305,-21.36323 2.96304,-21.36324 1.85249,-13.64873 1.8525,-13.64874 1.42496,-12.46188 1.42497,-12.46189 2.51018,-4.74739 2.51018,-4.74738 7.5314,-7.16307 7.53141,-7.16308 10.68162,-9.11181 10.68162,-9.11181 13.64873,-11.9114 13.64873,-11.9114 7.26864,-6.23226 7.26864,-6.23226 1.99653,-3.26383 1.99651,-3.26383 h 2.92546 2.92547 l 1.37187,3.01096 1.37189,3.01096 -1.69403,1.58354 -1.69405,1.58354 -21.95666,19.53397 -21.95666,19.53396 -4.55778,4.05914 -4.55779,4.05914 -4.41342,4.15396 -4.4134,4.15396 -10.93136,9.4529 -10.93135,9.45289 -1.07003,4.19584 -1.07003,4.19584 -0.75373,8.90135 -0.75374,8.90134 -2.2417,16.02243 -2.2417,16.02243 -1.27381,14.24215 -1.27379,14.24216 -1.08359,4.74739 -1.0836,4.74738 -1.37176,13.64873 -1.37179,13.64874 -0.26382,5.34081 -0.26382,5.3408 -2.39938,0.35294 -2.39936,0.35293 z m 492.14054,1.21514 -0.50405,-0.89013 -0.19914,-7.11595 -0.19913,-7.11594 -1.1152,-4.1591 -1.11519,-4.15909 -1.85209,-18.98954 -1.85208,-18.98955 -1.07404,-6.52765 -1.07404,-6.52766 -1.9298,-18.98954 -1.9298,-18.98954 -1.12066,-4.32645 -1.12066,-4.32644 0.59092,-1.60779 0.59092,-1.60779 -1.47064,-4.82794 -1.47063,-4.82795 -10.08819,-8.8118 -10.0882,-8.81179 -5.34081,-4.84909 -5.34081,-4.84908 -8.37145,-7.6218 -8.37146,-7.62179 -7.999,-7.12107 -7.99899,-7.12108 -7.95989,-7.2422 -7.95991,-7.24221 -3.90031,-3.43941 -3.90031,-3.43942 1.89063,-2.6704 1.89063,-2.67041 h 2.81983 2.81984 l 0.75902,2.39145 0.759,2.39146 7.92561,6.51398 7.92559,6.51399 8.90135,7.86103 8.90135,7.86101 9.41799,8.45403 9.418,8.45403 3.04389,2.36218 3.04389,2.36216 2.49619,2.38522 2.49619,2.38521 8.24332,7.32934 8.24331,7.32935 3.10013,6.31939 3.10013,6.31938 1.34086,13.64874 1.34086,13.64873 1.79917,12.46189 1.79915,12.46188 1.03302,9.49477 1.03301,9.49478 1.89421,12.46188 1.89422,12.46189 1.05221,7.12108 1.0522,7.12108 1.4932,8.15278 1.49318,8.15279 -2.86932,2.20573 -2.86931,2.20573 -2.00692,0.0263 -2.00696,0.0263 -0.50404,-0.89013 z m -284.77589,-21.75501 -2.07698,-1.20973 v -2.85415 -2.85415 l -3.08949,-8.06521 -3.0895,-8.0652 -2.77935,-26.11062 -2.77935,-26.11062 -0.7423,-14.24216 -0.7423,-14.24215 -1.07643,-5.93423 -1.07645,-5.93424 -1.20924,-17.20927 -1.20926,-17.20927 -0.73738,-7.87009 -0.73739,-7.87008 -0.86107,-1.39325 -0.86108,-1.39325 -8.79096,-0.36976 -8.79096,-0.36977 -5.49438,-0.15838 -5.49437,-0.15839 -8.7035,-10.97832 -8.7035,-10.97833 -0.66837,-0.59343 -0.66838,-0.59342 -4.10494,-5.34081 -4.10495,-5.34081 -1.32826,-1.18684 -1.32827,-1.18685 -1.78663,-2.69566 -1.78663,-2.69566 -4.02452,-4.42542 -4.02454,-4.42542 -5.34081,-6.91677 -5.34081,-6.91676 -3.08185,-3.98706 -3.08185,-3.98706 -5.9034,-6.89886 -5.90341,-6.89888 -1.69636,-2.47451 -1.69636,-2.47452 -4.99772,-5.83341 -4.9977,-5.83341 -6.27734,-7.81838 -6.27732,-7.81839 -4.15397,-5.1944 -4.15396,-5.19441 -3.85725,-4.34032 -3.85725,-4.34033 0.0107,-1.63643 0.0107,-1.63642 9.06352,-8.30793 9.06352,-8.30792 19.62543,-18.98954 19.62542,-18.98955 10.2985,-10.08819 10.29849,-10.08819 21.81473,-20.76982 21.81473,-20.76981 21.37576,-20.87371 21.37574,-20.8737 13.64874,-12.92604 13.64873,-12.92603 6.02953,-6.25633 6.02953,-6.25632 h 1.80846 1.80845 l 8.2474,8.01122 8.24741,8.01121 33.16873,32.17355 33.16874,32.17356 11.71314,11.14633 11.71315,11.14634 7.86982,7.52132 7.86982,7.52131 17.24294,16.80904 17.24293,16.80904 16.5919,16.02242 16.59191,16.02243 6.81465,6.29813 6.81465,6.29814 v 2.3583 2.3583 l -3.07289,3.21202 -3.07289,3.21204 -4.93832,6.52765 -4.93833,6.52766 -3.75252,4.15396 -3.75251,4.15396 -5.14884,6.79229 -5.14883,6.79228 -11.84583,14.57095 -11.84581,14.57095 -0.64674,0.59342 -0.64673,0.59343 -4.12329,5.33686 -4.12329,5.33687 -1.9577,2.37764 -1.95769,2.37763 -4.56996,5.48224 -4.56996,5.48225 -1.79841,2.23226 -1.7984,2.23225 -7.10117,8.90135 -7.10117,8.90135 -3.87432,4.15396 -3.87433,4.15396 -2.60595,3.75203 -2.60595,3.75201 -14.68214,0.84684 -14.68213,0.84684 -0.49145,1.33537 -0.49144,1.33538 -1.7442,18.98954 -1.7442,18.98954 -1.26503,15.429 -1.26505,15.42901 -1.70197,17.80269 -1.70198,17.8027 -1.38734,17.80269 -1.38733,17.8027 -1.59401,3.56054 -1.59402,3.56054 -1.81007,5.19332 -1.81008,5.1933 v 2.73313 2.73312 l -1.86504,1.86505 -1.86505,1.86504 h -17.08273 -17.08274 l -1.22123,-2.28189 -1.22123,-2.28188 0.74919,-9.28987 0.74918,-9.28986 1.11979,-2.17848 1.11979,-2.17849 7.9386,-9.09655 7.9386,-9.09656 1.4601,-3.31967 1.46008,-3.31968 v -14.07402 -14.07401 l 4.15396,-4.97198 4.15396,-4.97197 v -48.6619 -48.66191 l 2.63961,-3.74375 2.63961,-3.74376 9.59685,-11.35565 9.59684,-11.35564 3.85028,-4.23118 3.8503,-4.23116 1.51812,-2.07615 1.51811,-2.07617 2.86826,1.92151 2.86824,1.9215 8.1826,8.32369 8.18262,8.32367 h 3.15632 3.15631 l 3.58636,-3.85725 3.58636,-3.85725 4.0518,-5.34081 4.05179,-5.34081 4.03698,-4.42541 4.03699,-4.42542 1.83072,-2.69566 1.83072,-2.69566 6.60664,-7.83418 6.60663,-7.83419 4.28199,-5.22113 4.28301,-5.22112 15.59769,-18.64688 15.59769,-18.64687 v -2.51396 -2.51395 l -63.793,-63.07296 -63.79299,-63.07294 -24.95921,-24.65938 -24.9592,-24.65937 h -1.48775 -1.48774 l -19.84006,19.93087 -19.84006,19.93088 -54.15855,53.35689 -54.15854,53.35688 -3.99693,3.6892 -3.99692,3.68919 -10.97833,11.35099 -10.97833,11.35099 v 1.23765 1.23767 l 3.32773,3.89854 3.32772,3.89855 2.3098,3.15354 2.30979,3.15354 17.8027,21.20314 17.80269,21.20316 3.56054,4.53167 3.56054,4.53169 4.74739,5.6043 4.74738,5.6043 8.30793,10.26691 8.30792,10.2669 3.48331,0.0439 3.48332,0.0439 10.61295,-10.3849 10.61295,-10.38491 6.53108,7.12108 6.53109,7.12108 4.71243,5.93423 4.71243,5.93423 4.03723,4.40174 4.03722,4.40173 2.96455,4.36852 2.96457,4.36852 v 48.38279 48.38279 l 4.15396,4.97197 4.15396,4.97198 0.042,15.01999 0.042,15.02 1.46388,2.63418 1.46387,2.63419 7.12668,8.04743 7.12668,8.04744 1.87394,2.96711 1.87394,2.96712 0.63047,8.89039 0.63046,8.89041 -1.01944,2.68135 -1.01937,2.68128 -16.94194,-0.0361 -16.94193,-0.0361 z m -364.60418,-11.35064 -4.20832,-5.51148 -0.001,-1.31289 -10e-4,-1.31289 10.73357,-10.3849 10.73356,-10.38491 2.61999,-0.012 2.61997,-0.012 16.61584,2.40904 16.61585,2.40904 11.27504,1.68712 11.27505,1.6871 13.64873,1.9168 13.64873,1.91681 3.96416,1.04186 3.96417,1.04185 1.5191,-0.58293 1.5191,-0.58294 1.97155,-13.28424 1.97154,-13.28423 1.1093,-5.3408 1.10928,-5.34081 1.84206,-13.05531 1.84205,-13.05531 1.14926,-6.52766 1.14927,-6.52765 3.06663,-19.51971 3.06662,-19.51971 1.03826,-1.94 1.03827,-1.94001 4.6446,-4.05748 4.64462,-4.05749 5.07378,-4.15396 5.07378,-4.15396 4.5222,-3.93485 4.5222,-3.93486 2.30103,1.23149 2.30103,1.23147 0.73306,1.91031 0.73306,1.9103 v 2.08045 2.08043 l -3.28629,2.86659 -3.28627,2.86659 -8.58219,6.95903 -8.58218,6.95902 -0.002,0.16206 -0.002,0.16205 -4.12237,28.48431 -4.12237,28.48431 -2.48409,16.61585 -2.48409,16.61585 -1.76379,12.46189 -1.7638,12.46189 -1.1194,8.24545 -1.11941,8.24545 -1.18089,1.1809 -1.1809,1.1809 -10.98741,-1.48203 -10.98741,-1.48204 -27.89089,-4.14663 -27.89089,-4.14663 -10.61554,-1.68916 -10.61555,-1.68917 -6.37614,5.01255 -6.37616,5.01256 -3.65692,2.67041 -3.65693,2.6704 h -1.55039 -1.55038 l -4.20833,-5.51147 z m 802.12271,2.3938 -4.6163,-3.11767 -0.59343,-0.77025 -0.59342,-0.77024 -4.86683,-3.78591 -4.86682,-3.78591 -10.56218,1.68836 -10.56217,1.68836 -21.36324,3.08259 -21.36323,3.0826 -3.56054,0.5865 -3.56054,0.58651 -8.30793,1.13536 -8.30792,1.13535 -6.10716,0.74085 -6.10716,0.74087 -1.149,-2.23025 -1.149,-2.23025 -0.70133,-6.52766 -0.70134,-6.52765 -4.13129,-27.89089 -4.13129,-27.89089 -2.54581,-16.61585 -2.54581,-16.61585 -1.05197,-8.90135 -1.05196,-8.90135 -0.73416,-4.43445 -0.73417,-4.43445 -7.13725,-6.24717 -7.13725,-6.24716 -5.24782,-4.62466 -5.24781,-4.62465 0.75856,-2.49643 0.75856,-2.49642 1.86171,-2.11884 1.86173,-2.11883 1.51905,0.58291 1.51905,0.58292 14.28991,12.04424 14.28992,12.04426 0.59456,2.54698 0.59456,2.54698 3.61947,23.1435 3.61947,23.14351 1.74303,11.27504 1.74304,11.27504 1.08991,7.12108 1.0899,7.12108 2.47913,14.79007 2.47915,14.79008 1.44386,0.92318 1.44384,0.92316 1.78027,-0.71848 1.78027,-0.71849 23.14351,-3.45752 23.1435,-3.45751 8.90135,-1.11628 8.90135,-1.11628 11.76505,-1.81632 11.76505,-1.81634 h 2.48515 2.48515 l 10.97029,10.53026 10.97028,10.53027 -0.0294,1.04148 -0.0294,1.04149 -4.13608,5.63752 -4.13606,5.63752 h -1.60312 -1.60312 l -4.61629,-3.11767 z m -404.81179,-26.41218 -6.16248,-6.92456 1.35575,-1.35576 1.35576,-1.35576 h 3.9327 3.9327 l 2.26965,-1.41741 2.26965,-1.41743 3.1109,1.41743 3.1109,1.41741 h 4.13537 4.13536 l 0.71427,1.86136 0.71427,1.86134 -6.38905,6.42984 -6.38903,6.42983 -2.96712,-0.0107 -2.96711,-0.0107 -6.16249,-6.92456 z m -331.19859,-14.1589 -28.78103,-4.23717 v -1.43129 -1.43129 l 4.19391,-3.6823 4.19391,-3.68229 2.88326,-1.88919 2.88326,-1.88919 15.81672,2.58435 15.81671,2.58433 3.51345,-0.39962 3.51344,-0.39963 0.1086,-1.78027 0.10848,-1.78027 0.68723,-2.96712 0.68722,-2.96712 2.05239,-16.33892 2.05238,-16.33892 7.66513,-7.10129 7.66512,-7.1013 h 1.58187 1.58185 l 0.61247,0.99102 0.61249,0.99102 -1.05137,4.05308 -1.05137,4.05308 -1.92053,14.24215 -1.92054,14.24216 -1.13243,7.12108 -1.13243,7.12108 -1.1802,10.01488 -1.1802,10.01488 -1.48884,0.94528 -1.48885,0.94526 -3.56054,-0.12464 -3.56054,-0.12466 z m 643.77666,2.78222 -1.7406,-1.74061 -0.76672,-8.6443 -0.7667,-8.6443 -1.14972,-7.7145 -1.14974,-7.7145 -2.95539,-17.96072 -2.9554,-17.96074 v -1.32552 -1.32553 l 2.07698,0.0394 2.07699,0.0395 7.61175,6.87921 7.61175,6.87921 0.8683,7.02677 0.86831,7.02677 2.03171,13.64874 2.03169,13.64873 0.53662,0.89013 0.53662,0.89014 h 3.65535 3.65536 l 14.31575,-2.44251 14.31576,-2.4425 2.43194,0.64251 2.43194,0.64251 5.63752,5.23184 5.63752,5.23186 v 1.07995 1.07994 l -31.15471,4.42458 -31.15472,4.42457 -1.39878,-0.035 -1.39878,-0.035 -1.74061,-1.74061 z m -322.83337,-2.11602 -2.17562,-1.5966 -0.63842,-75.90196 -0.6384,-75.90196 -1.04321,-1.12751 -1.04322,-1.1275 v -12.74789 -12.74791 l 1.18685,-0.7335 1.18684,-0.73351 v -25.44716 -25.44715 h -1.42835 -1.42835 l -26.16583,25.97986 -26.16582,25.97988 -8.30793,7.8205 -8.30792,7.8205 -1.93612,0.0247 -1.93611,0.0248 -3.3848,-4.45067 -3.38481,-4.45068 -2.39358,-2.86637 -2.39359,-2.86638 -4.74738,-5.54189 -4.74739,-5.54188 -5.93423,-7.42125 -5.93423,-7.42125 -1.3141,-1.42224 -1.3141,-1.42225 -5.74589,-7.07859 -5.7459,-7.0786 -1.24793,-1.31552 -1.24793,-1.31553 -9.49477,-11.68644 -9.49477,-11.68642 -3.26383,-3.49321 -3.26383,-3.49321 0.001,-2.49437 10e-4,-2.49438 26.37587,-25.5172 26.37586,-25.5172 20.7395,-20.17639 20.73952,-20.17639 7.91364,-7.7145 7.91364,-7.7145 25.24041,-24.92377 25.24042,-24.92378 4.69692,-6.18528 4.69692,-6.18528 2.48314,-0.78811 2.48313,-0.78812 4.23312,4.87774 4.23311,4.87777 16.66958,16.93121 16.66959,16.93123 43.25071,42.13305 43.25071,42.13305 13.61363,13.05531 13.61362,13.05531 8.6552,8.61954 8.65518,8.61953 v 1.84181 1.84182 l -5.04409,6.00662 -5.0441,6.0066 -4.74739,5.58408 -4.74738,5.58409 -4.15396,5.13922 -4.15397,5.13922 -6.60674,7.8207 -6.60674,7.8207 -8.10222,10.0882 -8.10221,10.08819 -1.32002,1.18685 -1.32002,1.18684 -5.92768,7.5765 -5.92768,7.57648 -2.07698,2.215 -2.0768,2.215 h -1.79987 -1.79988 l -20.99399,-20.4731 -20.994,-20.4731 -13.55696,-13.35202 -13.55698,-13.35202 h -0.91296 -0.91297 l -0.47445,24.62706 -0.47446,24.62706 1.53945,2.34107 1.53945,2.34105 v 11.96045 11.96043 l -1.177,1.177 -1.177,1.17699 -0.52395,75.8666 -0.52396,75.86661 -2.1563,1.57855 -2.1563,1.57855 -2.96711,-0.87459 -2.96712,-0.8746 -12.46189,0.0628 -12.46188,0.0628 -2.37369,0.81569 -2.3737,0.81569 -2.17563,-1.59659 z m 26.52038,-37.97971 0.0144,-1.48356 0.0119,-99.56692 0.0119,-99.56691 -1.8755,-2.86237 -1.87549,-2.86237 -1.81429,-0.69621 -1.81428,-0.6962 -3.16067,3.16026 -3.16066,3.16028 -0.3232,99.93039 -0.32319,99.93038 0.58266,1.5184 0.58266,1.51839 h 6.56491 6.5649 l 0.0144,-1.48356 z m -65.50466,-180.73241 33.4454,-33.86018 v -1.29468 -1.2947 l -13.35202,-14.35499 -13.35202,-14.35499 -2.96712,-3.04577 -2.96712,-3.04577 -4.15396,-4.80556 -4.15396,-4.80557 -11.80642,-12.66274 -11.8064,-12.66275 h -0.91245 -0.91245 l -33.27144,32.80955 -33.27144,32.80956 v 1.41776 1.41776 l 3.85218,4.64191 3.85217,4.64189 7.82019,8.30793 7.82017,8.30792 3.5844,4.15397 3.58439,4.15396 16.8968,18.69283 16.89682,18.69283 h 0.86442 0.86444 z m -32.24079,-2.55049 -0.80527,-0.80527 0.78961,-4.20907 0.78962,-4.20905 11.95557,-11.60152 11.95557,-11.60152 1.80771,0.0182 1.80772,0.0182 1.4209,0.90328 1.42092,0.90329 -0.82749,1.29273 -0.82749,1.29274 -11.1723,12.04082 -11.1723,12.0408 -1.65358,2.36084 -1.6536,2.36084 h -1.51516 -1.51517 l -0.80526,-0.80526 z m -22.14043,-14.60851 -13.64873,-14.11236 v -1.55607 -1.55607 l 3.2623,-0.3754 3.2623,-0.3754 11.86469,11.65044 11.86469,11.65044 0.005,4.45068 0.005,4.45067 -1.48355,-0.0573 -1.48356,-0.0573 -13.64874,-14.11236 z m 22.08074,-4.2738 -0.71751,-1.86979 v -0.95015 -0.95016 l 4.88702,-4.887 4.88701,-4.88702 h 2.16402 2.16403 l 0.79687,1.2894 0.79691,1.28939 -3.99068,4.15464 -3.99067,4.15464 -3.13975,2.26292 -3.13974,2.26293 z m -13.60472,-5.79957 -5.17272,-5.18131 0.79209,-1.28161 0.79208,-1.28163 h 2.07083 2.07083 l 3.79336,3.91376 3.79336,3.91374 v 2.61391 2.6139 l -1.48356,-0.0647 -1.48356,-0.0647 -5.17271,-5.1813 z m -22.19981,-14.03982 -0.59398,-1.5479 5.67533,-5.91856 5.67532,-5.91858 8.69054,-9.2434 8.69054,-9.24341 1.62982,0.62542 1.62981,0.62542 -0.65019,4.51269 -0.65019,4.5127 -11.56415,11.57175 -11.56413,11.57175 h -3.18737 -3.18737 z m 19.03246,0.30905 -0.76564,-1.23884 1.58574,-1.99441 1.58573,-1.99441 2.86659,-3.2944 2.86659,-3.29442 h 1.73244 1.73244 l -0.74051,3.85725 -0.74051,3.85726 -3.03456,2.6704 -3.03458,2.6704 h -1.64404 -1.64405 z m 23.63627,0.0756 -2.50649,-1.01274 -2.53761,-3.22605 -2.53762,-3.22606 0.0182,-1.3235 0.0182,-1.3235 1.13518,-1.78027 1.1352,-1.78027 5.47678,5.70132 5.47679,5.70133 -0.65868,1.71646 -0.65866,1.71647 -0.92739,-0.0752 -0.92738,-0.0752 -2.50648,-1.01274 z m 18.1737,0.30746 -3.3223,-0.50007 -10.54945,-10.69101 -10.54945,-10.69102 -0.75145,-3.42133 -0.75145,-3.42134 1.21518,-2.1223 1.2152,-2.12232 12.90082,13.09969 12.90081,13.0997 3.47433,2.60362 3.47431,2.60362 -1.78027,1.19108 -1.78027,1.19106 -1.18685,-0.15965 -1.18684,-0.15965 z m 165.61726,68.20926 5.38478,-6.23094 3.98678,-4.27944 3.98677,-4.27943 8.90135,-9.87156 8.90135,-9.87155 6.0706,-6.61883 6.0706,-6.61882 7.86559,-8.90134 7.86557,-8.90135 0.01,-0.94416 0.009,-0.94411 -33.43374,-33.17769 -33.43375,-33.17767 h -0.86531 -0.8653 l -14.54494,15.72571 -14.54493,15.72572 -12.70492,13.64873 -12.7049,13.64873 -4.88277,5.34081 -4.88277,5.34081 -0.0317,1.73829 -0.0317,1.73829 32.93499,33.39927 32.93499,33.39927 1.31005,0.17112 1.31006,0.17112 5.3848,-6.23094 z m -13.59562,-31.30558 -1.53037,-1.93113 -8.30793,-8.98233 -8.30792,-8.98234 -3.88569,-4.13347 -3.8857,-4.13348 0.42406,-1.27219 0.42408,-1.2722 h 2.97982 2.97983 l 12.05356,11.46093 12.05356,11.46094 v 4.8582 4.8582 h -1.73348 -1.73348 z m 10.95576,-3.61937 0.0242,-4.53769 11.34066,-11.57175 11.34066,-11.57176 h 3.40063 3.40065 l 0.76019,1.23002 0.76017,1.23 -13.94703,14.49571 -13.94704,14.4957 -1.57868,0.38373 -1.5787,0.38375 0.0242,-4.53771 z m -14.75791,-18.86557 -5.58338,-5.42654 0.46539,-1.39783 0.46539,-1.39783 1.89641,-0.3679 1.89642,-0.36791 4.82961,4.36326 4.82959,4.36325 v 2.82902 2.82901 h -1.60803 -1.60803 z m 14.73367,1.49791 v -2.7418 l 3.70137,-3.78585 3.70136,-3.78585 1.34273,0.0182 1.34273,0.0182 1.71487,1.08496 1.71489,1.08497 -5.86885,5.41186 -5.86883,5.41185 -0.89014,0.0127 -0.89013,0.0127 z m -37.75429,-16.08512 -1.55547,-0.985 15.58098,-15.31452 15.58097,-15.31452 1.10679,-0.39561 1.10678,-0.39563 v 4.91997 4.91995 l -10.97832,11.10467 -10.97833,11.10467 -4.15397,0.67051 -4.15396,0.67051 z m 19.34741,-0.18001 -0.86313,-1.39659 5.73313,-5.82066 5.73315,-5.82066 h 0.93475 0.93474 l -0.006,3.26382 -0.006,3.26383 -2.66452,3.21434 -2.66451,3.21433 -3.13435,0.73909 -3.13434,0.73907 -0.86314,-1.39657 z m 24.27513,0.43055 -1.84624,-0.49833 -2.01101,-3.40436 -2.011,-3.40435 v -2.48729 -2.48729 h 1.14397 1.14399 l 4.65835,4.99402 4.65837,4.99401 -0.58851,1.53364 -0.58852,1.53364 -1.35657,-0.13767 -1.35658,-0.13767 z m 9.40892,-6.67688 -7.56267,-7.57936 -3.73735,-4.05679 -3.73734,-4.05678 -0.81765,-5.0441 -0.81766,-5.04409 h 2.47802 2.47802 v 0.92107 0.92107 l 13.61422,14.21122 13.61422,14.21122 -0.3536,1.18684 -0.3536,1.18685 -3.62097,0.3611 -3.62098,0.36111 z m -81.84043,-33.63842 28.63417,-29.22053 6.74168,-7.67888 6.74169,-7.67887 -10.03051,-9.7011 -10.03051,-9.70109 -25.27413,-24.31357 -25.27414,-24.31357 -1.66442,-0.37176 -1.66441,-0.37175 -15.72969,15.20733 -15.72969,15.20734 -19.34449,18.9151 -19.34448,18.91509 v 0.98422 0.98421 l 7.41779,7.98725 7.41779,7.98725 10.08819,10.42911 10.0882,10.42909 17.20927,17.64399 17.20927,17.64398 1.95213,0.11885 1.95212,0.11884 z M 505.95717,517.6208 v -0.90682 l -13.05531,-13.56157 -13.05531,-13.56159 v -0.96059 -0.9606 h 4.18604 4.18603 l 10.51747,10.51746 10.51746,10.51745 0.80548,2.53786 0.80549,2.53785 -0.75339,2.37369 -0.75338,2.37369 h -1.70029 -1.70029 z m 8.30793,-3.41668 v -4.32351 l 6.17742,-6.0614 6.17743,-6.06139 4.05116,-4.74738 4.05115,-4.74739 3.96254,-0.695 3.96254,-0.69501 1.47505,0.91162 1.47503,0.91163 -13.29246,13.7214 -13.29248,13.72141 v 1.19427 1.19426 h -2.37369 -2.37369 z m -11.06362,-19.19689 -4.36539,-4.47057 v -1.43351 -1.43352 h 3.37659 3.37659 l 1.82384,2.07698 1.82384,2.07698 0.7606,2.50285 0.7606,2.50283 -1.59564,1.32427 -1.59563,1.32426 z m 11.42139,2.56447 -0.75458,-1.9664 1.71784,-3.06054 1.71783,-3.06053 2.80456,-1.39823 2.80457,-1.39823 1.61024,0.61791 1.61023,0.61791 v 1.15307 1.15307 l -4.56225,4.65418 -4.56224,4.65418 h -0.81581 -0.81582 z m -34.75834,-17.31986 0.018,-1.48356 14.6386,-15.13229 14.63859,-15.13229 h 3.09673 3.09672 l 14.58826,14.94478 14.58827,14.94477 v 1.37437 1.37435 l -4.25311,0.35658 -4.2531,0.35657 -10.87919,-11.37981 -10.87918,-11.37983 v -2.79522 -2.79522 l -1.78027,-0.68316 -1.78027,-0.68315 v 2.76982 2.7698 l -2.38432,3.03116 -2.3843,3.03116 -8.82387,8.99736 -8.82387,8.99737 h -4.22082 -4.22083 l 0.018,-1.48356 z m 18.97156,0.14384 v -1.33971 l 4.32793,-4.79049 4.32792,-4.7905 5.22595,0.0572 5.22593,0.0572 0.23762,0.44852 0.23762,0.44851 4.0923,4.4399 4.09232,4.43988 -1.33501,1.33501 -1.33501,1.33502 -2.852,-0.71582 -2.85198,-0.71579 -2.25219,-4.18206 -2.25218,-4.18205 h -1.54763 -1.54762 l -0.73303,2.07698 -0.73302,2.07698 -2.40374,2.6704 -2.40372,2.67041 h -2.76022 -2.76024 v -1.33972 z m -477.807906,341.20763 -6.424507,-6.9575 -4.51e-4,-1.86067 -4.51e-4,-1.86068 20.176383,-20.05038 20.176388,-20.05038 v -23.02495 -23.02494 l -4.180678,-7.74062 -4.18069,-7.74062 -3.600026,-8.44596 -3.600013,-8.44598 -2.21259,-4.15396 -2.212591,-4.15397 -5.595755,-13.64873 -5.595779,-13.64873 -2.298619,-7.7145 -2.298636,-7.71451 L 15.681464,629.49778 12.18276,617.62932 9.8911139,603.38716 7.5994797,589.145 6.4623266,573.716 5.3251853,558.287 l 1.0418969,-22.21212 1.0418968,-22.2121 3.611039,-23.48148 3.61104,-23.48147 1.388432,-6.35097 1.388421,-6.35098 1.615369,-0.61987 1.615369,-0.61988 6.426933,2.02152 6.426928,2.02151 0.773099,2.43583 0.773112,2.43584 -2.013378,10.82142 -2.013378,10.82142 -1.089121,4.15397 -1.089134,4.15396 -1.225063,11.86846 -1.225062,11.86847 -1.213681,17.20927 -1.213681,17.20927 0.766204,11.27504 0.766192,11.27504 1.661846,11.27504 1.661846,11.27504 2.830439,13.05531 2.830439,13.05532 1.45651,5.3408 1.456509,5.34081 3.022839,10.0882 3.02285,10.08819 3.501992,7.7145 3.501992,7.7145 2.853262,6.2634 2.85325,6.26338 v 0.61047 0.61047 l 3.685265,7.96172 3.685276,7.96172 2.701215,5.34081 2.701227,5.34081 1.914122,3.56054 1.914122,3.56054 0.0071,35.25767 0.0071,35.25768 -21.404762,21.11752 -21.404775,21.11754 -1.248004,0.42985 -1.248017,0.42984 -6.4245,-6.9575 z M 973.74429,807.16224 952.21141,786.02993 v -35.7935 -35.79348 l 4.64082,-9.24089 4.64081,-9.24088 2.3936,-5.34081 2.39361,-5.34081 4.24063,-9.28474 4.24062,-9.28473 v -1.54826 -1.54828 l 1.78027,-1.47749 1.78027,-1.4775 v -1.99099 -1.99101 l 1.04372,-1.1275 1.04372,-1.12751 3.8109,-12.46188 3.81092,-12.46189 0.96894,-4.15396 0.96896,-4.15396 1.86021,-8.30793 1.8602,-8.30792 1.72571,-7.71451 1.72571,-7.7145 1.43404,-11.27504 1.43403,-11.27504 -0.61536,-24.92377 -0.61534,-24.92378 -1.42771,-11.86846 -1.42769,-11.86846 -0.99349,-4.15397 -0.99347,-4.15396 -1.39631,-7.7145 -1.39632,-7.7145 -0.60893,-3.24864 -0.60893,-3.24863 0.70615,-2.81353 0.70615,-2.81351 5.10353,-1.94907 5.10352,-1.94905 h 1.892 1.892 l 1.315,1.58451 1.315,1.58451 2.9083,17.70175 2.9084,17.70174 1.2666,10.08819 1.2666,10.0882 1.183,8.53526 1.183,8.53528 v 19.94904 19.94904 l -1.7716,16.61585 -1.7717,16.61585 -1.1063,6.52766 -1.1063,6.52765 -1.8105,6.52766 -1.8105,6.52765 -1.7302,5.93424 -1.7301,5.93423 -2.9635,9.49477 -2.96354,9.49477 -4.7835,11.38724 -4.7835,11.38725 -4.33517,9.38257 -4.33517,9.38256 -5.82722,12.08135 -5.82723,12.08135 v 23.69644 23.69646 l 19.10719,18.22371 19.10714,18.22371 1.0693,0.39561 1.0691,0.39563 v 2.60865 2.60865 l -6.8587,6.78721 -6.85881,6.78722 h -0.68607 -0.68607 l -21.53289,-21.13231 z m -908.377976,7.75691 -4.424813,-5.02072 -0.02587,-1.88748 -0.02587,-1.88748 8.901347,-8.37971 8.901348,-8.37971 v -49.1879 -49.18788 l 2.262248,-2.04731 2.262236,-2.0473 65.68472,0.21566 65.68471,0.21566 2.07698,-0.85297 2.07698,-0.85299 v -0.94332 -0.94331 l 3.46157,-2.19353 3.46157,-2.19353 6.52691,-6.23095 6.5269,-6.23094 1.58328,0.0395 1.58328,0.0395 2.6704,2.22774 2.67041,2.22775 v 2.48015 2.48016 h -0.89658 -0.89658 l -4.75676,4.45068 -4.7568,4.45067 -9.22012,8.01121 -9.22016,8.01122 h -45.46933 -45.46933 l -14.4285,0.77581 -14.428492,0.77581 v 48.43048 48.43048 l -4.450674,4.11197 -4.450674,4.11197 -8.065463,6.02405 -8.065476,6.02407 -1.429295,-0.0234 -1.429308,-0.0234 -4.424812,-5.02071 z m 880.910866,0.83575 -5.34081,-4.10962 -6.82437,-5.54663 -6.82436,-5.54664 v -48.85122 -48.85124 l -12.64652,-0.77378 -12.64652,-0.77378 h -47.19816 -47.19817 l -3.9483,-3.22515 -3.94832,-3.22515 -10.68162,-9.4359 -10.68161,-9.43591 -1.06601,-1.78996 -1.06599,-1.78998 3.43969,-2.75236 3.43969,-2.75235 0.99965,-0.006 0.99964,-0.006 3.01152,2.36886 3.01151,2.36886 6.49831,5.9933 6.49828,5.9933 2.93967,1.92616 2.93967,1.92615 66.14572,-0.2908 66.14572,-0.29081 1.52404,1.83636 1.52404,1.83636 0.52314,49.58543 0.52313,49.58543 8.85502,8.59449 8.85503,8.59449 v 1.0333 1.03332 l -4.45068,5.49991 -4.45067,5.49992 -1.78027,-0.0565 -1.78027,-0.0565 -5.34081,-4.10961 z m -771.80079,-6.87849 -10.43885,-1.35167 -1.05531,-1.72475 -1.05529,-1.72475 2.79769,-1.83579 2.79768,-1.83579 12.41987,-10.89557 12.41988,-10.89556 2.21082,-0.37948 2.21082,-0.37947 -0.38158,2.37369 -0.38159,2.37369 -1.10343,7.7145 -1.10342,7.71451 -1.4821,5.93423 -1.48211,5.93423 -2.96712,0.16483 -2.96711,0.16483 z m 659.36164,0.21022 -1.35446,-1.63202 -1.38542,-10.64655 -1.3854,-10.64656 -1.06009,-2.72624 -1.06011,-2.72626 v -1.8044 -1.80441 l 2.35711,0.74813 2.35712,0.74812 3.31313,3.1891 3.31311,3.18912 4.63777,3.56053 4.63778,3.56054 4.20238,3.95365 4.20237,3.95366 2.89149,2.1063 2.89148,2.10629 -0.67958,1.77094 -0.67956,1.77094 -8.71109,0.8084 -8.71108,0.8084 -4.21124,0.67217 -4.21123,0.67218 z M 113.11102,752.85178 v -31.52945 l 1.2286,-2.29567 1.22861,-2.29567 h 36.68044 36.68043 l 0.85999,1.39149 0.85999,1.3915 -4.6472,4.01239 -4.64719,4.0124 -3.8191,3.0158 -3.81909,3.01579 -22.29153,0.18496 -22.29152,0.18494 -0.3245,19.6773 -0.32448,19.67729 -6.42065,5.54319 -6.42066,5.54319 h -1.26607 -1.26607 z m 789.19586,25.65131 -6.39381,-5.87814 0.34514,-17.24366 0.34515,-17.24366 -0.78473,-2.47248 -0.78473,-2.47248 -21.79446,0.26201 -21.79446,0.26199 -4.50843,-3.4016 -4.50843,-3.4016 -4.0224,-3.75052 -4.02239,-3.75052 0.82861,-1.34072 0.82861,-1.34072 h 36.29464 36.29464 l 1.57665,2.07698 1.57666,2.07698 0.0377,31.74814 0.0377,31.74814 h -1.57897 -1.57897 z M 133.28741,753.66854 v -12.90998 l 1.48356,-1.21286 1.48355,-1.21285 15.13258,-0.41602 15.13258,-0.41603 -0.0227,1.78027 -0.0227,1.78027 -8.46225,7.12108 -8.46225,7.12108 -3.64461,2.96711 -3.6446,2.96712 -2.76028,2.6704 -2.76028,2.67041 h -1.72631 -1.72633 v -12.91 z m 749.422,8.42965 -4.81887,-4.421 -7.04959,-6.09823 -7.04959,-6.09823 -2.61999,-2.2097 -2.62,-2.20969 -0.34712,-1.693 -0.34713,-1.69299 15.42901,0.3046 15.429,0.30461 1.13738,1.10155 1.13736,1.10154 0.0554,13.04545 0.0554,13.04544 -1.78627,-0.0297 -1.78627,-0.0297 -4.81887,-4.42099 z M 70.514022,701.48381 68.010857,697.96844 v -1.46149 -1.4615 l -4.640415,-9.63033 -4.640427,-9.63033 -3.019231,-6.74097 -3.01923,-6.74095 -4.936818,-15.21571 -4.936818,-15.21569 -1.75658,-6.52765 -1.756581,-6.52766 -1.577532,-5.34081 -1.577533,-5.34081 -1.289508,-5.93423 -1.289509,-5.93423 -1.697867,-10.08819 -1.697854,-10.0882 -1.447004,-11.86846 -1.447003,-11.86846 1.97439,-24.92378 1.974391,-24.92377 1.729448,-10.68162 1.729449,-10.68162 1.866708,-7.7145 1.866707,-7.7145 0.631284,-2.96712 0.631284,-2.96711 4.823984,-15.42901 4.823997,-15.429 1.176532,-1.48356 1.176533,-1.48355 h 2.2413 2.241312 l 5.624584,2.56932 5.624583,2.56932 2.076982,1.76859 2.076981,1.76859 0.0095,2.48645 0.0095,2.48646 -4.676293,15.429 -4.676282,15.429 -1.216173,6.52766 -1.216162,6.52765 -1.87238,13.05532 -1.872393,13.05531 -1.194359,19.58296 -1.194359,19.58297 2.447253,13.05531 2.447266,13.05531 1.802048,10.68161 1.80206,10.68162 1.672255,7.12108 1.672266,7.12108 1.933504,10.68162 1.933503,10.68161 1.093299,4.971 1.093299,4.97099 4.636261,9.98931 4.636273,9.9893 42.542198,0.65723 42.54219,0.65724 23.93797,-0.18853 23.93796,-0.18853 3.3595,-2.96578 3.3595,-2.96577 6.56954,-5.93557 6.56955,-5.93558 3.51865,-2.87506 3.51865,-2.87505 12.49396,-11.36711 12.49396,-11.36709 6.91572,-5.93423 6.91572,-5.93423 6.32351,-6.12534 6.32349,-6.12535 2.33368,-0.74068 2.33368,-0.74068 3.68129,4.46604 3.68127,4.46603 -0.0178,1.80656 -0.0178,1.80657 -9.84917,8.90135 -9.84917,8.90135 -8.14802,7.12107 -8.14802,7.12108 -7.2055,6.59516 -7.2055,6.59517 -14.83558,12.93173 -14.83558,12.93173 -0.59342,0.71224 -0.59343,0.71223 -4.26599,3.20108 -4.26598,3.20109 -68.13164,0.0182 -68.131644,0.0182 -1.780269,1.12639 -1.78027,1.12639 v 9.43677 9.43676 l -0.760662,0.76205 -0.760661,0.76203 -2.503166,-3.51537 z m 880.145148,2.61771 -0.82145,-0.82145 v -9.25521 -9.25521 l -2.29567,-1.22861 -2.29567,-1.2286 h -67.86382 -67.86383 l -7.28222,-6.17856 -7.28225,-6.17857 -6.56329,-5.98661 -6.5633,-5.98661 -5.30516,-4.64287 -5.30517,-4.64288 -14.83558,-13.11094 -14.83558,-13.11095 -7.49332,-7.16995 -7.49334,-7.16996 -1.40801,-0.48247 -1.40803,-0.48248 -2.07698,-2.36953 -2.07698,-2.36952 v -0.78949 -0.7895 l 3.81452,-4.96315 3.81453,-4.96313 1.22957,0.0182 1.22957,0.0182 1.35233,0.87195 1.35233,0.87197 11.38411,10.49954 11.38411,10.49954 4.62233,3.74262 4.62232,3.74261 12.3124,11.17402 12.31239,11.17402 8.62283,7.74439 8.62283,7.74439 3.1339,2.0558 3.13389,2.05581 64.6293,-0.43586 64.62929,-0.43584 2.24256,-2.02948 2.24255,-2.02949 v -2.04441 -2.04443 l 1.78027,-1.47749 1.78027,-1.47749 v -2.15833 -2.15833 l 1.05134,-0.64976 1.05133,-0.64977 1.86727,-7.43148 1.86725,-7.4315 0.87966,-4.74738 0.87965,-4.74739 0.13768,-1.18685 0.13767,-1.18684 0.72016,-3.56054 0.72016,-3.56054 3.10245,-16.61585 3.10246,-16.61585 1.63865,-8.30792 1.63866,-8.30793 1.38056,-7.12108 1.38056,-7.12108 -1.28177,-16.02242 -1.28176,-16.02243 -1.81633,-15.429 -1.81634,-15.429 -1.93227,-8.90135 -1.93227,-8.90135 -4.52677,-15.12324 -4.52677,-15.12322 0.65707,-1.71229 0.65706,-1.71227 7.69287,-3.71021 7.69287,-3.7102 2.47341,0.36933 2.47341,0.36932 0.95425,1.78027 0.95425,1.78027 4.80448,15.28816 4.80449,15.28817 v 2.23392 2.23393 l 1.05436,2.06088 1.05436,2.06087 1.42135,7.12108 1.42136,7.12108 1.70078,10.68162 1.70079,10.68161 1.27409,17.20928 1.27409,17.20927 0.59721,8.30792 0.59722,8.30793 -1.225,5.93423 -1.22499,5.93423 -1.92962,14.24216 -1.92961,14.24216 -2.38271,8.90134 -2.3827,8.90135 -2.72621,10.75392 -2.72622,10.75391 -1.53118,4.67509 -1.5312,4.67509 -2.2368,6.40771 -2.23679,6.40771 -4.80311,11.39499 -4.8031,11.39498 -3.45535,7.01393 -3.45533,7.01393 -0.0427,1.88742 -0.0427,1.88741 -2.69639,3.29405 -2.69641,3.29406 -0.82145,-0.82146 z m -469.8038,-35.88984 -0.4154,-1.16415 -3.7762,-4.53272 -3.7762,-4.53272 -8.38897,-10.28393 -8.38898,-10.28391 v -1.78725 -1.78725 l 4.81447,-4.86282 4.81447,-4.86283 1.41647,0.91157 1.41648,0.91157 8.05298,8.4462 8.05296,8.44621 -0.33846,12.82047 -0.33848,12.82048 -1.36487,0.45261 -1.36487,0.45261 z m 60.27931,0.22196 -0.75896,-0.75896 0.0349,-12.5608 0.0349,-12.56079 8.60204,-9.19806 8.60205,-9.19806 h 0.81199 0.81199 l 4.79326,4.8414 4.79325,4.84138 v 1.68627 1.68626 l -2.07698,2.16107 -2.07699,2.16106 -3.56053,4.61973 -3.56054,4.61972 -6.90389,8.62732 -6.90388,8.62731 -0.94179,0.58205 -0.94179,0.58206 -0.75896,-0.75896 z m -457.640605,-12.75992 -1.423278,-1.71494 0.387825,-2.73573 0.387814,-2.73573 30.858004,-0.79921 30.85801,-0.79922 26.35747,0.6814 26.35746,0.68141 4.50055,-3.39359 4.50053,-3.39357 11.2497,-10.73077 11.2497,-10.73076 10.11354,-9.58923 10.11353,-9.58924 5.33061,-4.65292 5.33062,-4.65292 9.58599,-9.19806 9.58599,-9.19806 h 1.21858 1.21859 l 2.05882,2.27496 2.05881,2.27497 -1.25007,2.33577 -1.25008,2.33578 -5.01634,3.9939 -5.01634,3.99389 -9.59193,8.90135 -9.59193,8.90134 -8.95679,8.30793 -8.95679,8.30792 -9.85667,8.90135 -9.85666,8.90135 -7.65474,7.41779 -7.65475,7.41779 H 142.8286 84.917353 Z m 739.151645,0.1406 -1.97971,-1.51219 -15.4009,-14.50644 -15.4009,-14.50643 -3.3892,-2.62311 -3.38921,-2.6231 -5.98458,-5.95425 -5.98457,-5.95426 -10.03785,-9.11521 -10.03785,-9.11521 -5.90405,-5.30038 -5.90405,-5.30038 1.68207,-3.14297 1.68208,-3.14297 2.05015,0.34929 2.05014,0.34929 12.94192,12.46189 12.94191,12.46188 6.4392,5.79259 6.43919,5.79259 16.61585,15.61699 16.61584,15.617 3.67824,2.99022 3.67823,2.99022 57.30094,0.14321 57.30096,0.14319 1.2648,1.2648 1.26478,1.26479 -1.14979,3.26994 -1.14979,3.26994 -58.12707,0.26562 -58.12708,0.26564 z m -746.034286,-15.76079 -1.32369,-3.43467 -3.674951,-19.58297 -3.674951,-19.58296 -1.290031,-4.74739 -1.290031,-4.74738 -0.968799,-5.93424 -0.968799,-5.93423 -2.121001,-9.49477 -2.121001,-9.49477 0.100169,-13.05531 0.10017,-13.05531 2.046159,-14.83558 2.046159,-14.83558 1.570874,-12.46189 1.570862,-12.46188 0.812563,-4.15397 0.812563,-4.15396 2.916841,-8.30792 2.916841,-8.30793 1.679803,-3.56054 1.679791,-3.56054 3.636177,-11.11144 3.636189,-11.11144 1.772388,-3.42743 1.772389,-3.42742 h 2.073575 2.073575 l 9.467702,3.6621 9.4677,3.66211 19.81918,7.0195 19.81918,7.01952 h 1.21999 1.21997 l 1.85341,2.82867 1.85342,2.82867 -1.68788,4.58912 -1.68788,4.58912 -2.10055,7.39866 -2.10057,7.39866 -2.06353,1.86747 -2.06352,1.86746 -14.0735,-4.34955 -14.07349,-4.34956 -5.0958,-1.16646 -5.09578,-1.16646 -1.64623,0.63171 -1.64623,0.63172 -1.82858,6.2998 -1.82859,6.29979 -2.500067,12.46188 -2.500068,12.46189 -1.66676,8.30793 -1.666747,8.30792 -0.721235,6.66817 -0.721246,6.66815 1.366345,10.54112 1.366345,10.54111 1.649716,10.68161 1.649717,10.68162 3.039561,23.14351 3.039559,23.1435 0.65865,2.07698 0.65867,2.07698 h 39.54832 39.54832 l 4.24468,-3.85725 4.24468,-3.85725 12.12185,-10.68162 12.12187,-10.68161 11.35869,-10.73394 11.35869,-10.73393 5.34081,-4.60162 5.34081,-4.60163 15.20666,-14.33561 15.20665,-14.33559 8.65025,-8.30793 8.65026,-8.30792 5.81424,-5.3942 5.81426,-5.39418 9.26855,-8.55126 9.26855,-8.55125 h 2.81173 2.81173 l 5.4257,7.13433 5.4257,7.13433 v 1.71419 1.71419 l -13.35202,12.88763 -13.35202,12.88762 -10.08819,9.34776 -10.0882,9.34777 -12.55199,11.93927 -12.5519,11.93927 -14.15206,13.11735 -14.15205,13.11734 -6.52766,5.8722 -6.52765,5.87219 -0.59343,0.59343 -0.59342,0.59342 -10.015,8.90135 -10.015,8.90135 -6.00743,5.62775 -6.00742,5.62774 -45.21054,0.009 -45.21054,0.01 -14.213731,0.76427 -14.213744,0.76426 -1.323701,-3.43467 z m 801.375976,2.20339 -49.89364,-0.32262 -3.60492,-3.25115 -3.60491,-3.25114 -17.05854,-15.429 -17.05855,-15.429 -7.77475,-7.19466 -7.77476,-7.19466 -6.52766,-5.86065 -6.52765,-5.86065 -2.43737,-2.3737 -2.43738,-2.37369 -7.65081,-7.05419 -7.65083,-7.05419 -13.66699,-13.1222 -13.66699,-13.1222 -14.52061,-13.61194 -14.52061,-13.61195 v -2.78642 -2.78641 l 5.56717,-6.44843 5.56717,-6.44843 2.44404,0.0167 2.44404,0.0167 4.88598,4.43392 4.88597,4.43392 13.36959,12.46189 13.36959,12.46188 5.5572,5.34081 5.55721,5.34081 11.24636,10.68162 11.24637,10.68162 9.42342,8.30792 9.42341,8.30793 3.60276,3.56053 3.60275,3.56054 8.32183,7.7145 8.32182,7.71451 9.3436,8.30792 9.34361,8.30793 1.31878,1.18684 1.31879,1.18685 5.03482,4.45067 5.03481,4.45068 h 39.09247 39.09247 l 0.60736,-0.98272 0.60736,-0.98274 1.87715,-12.36929 1.87716,-12.3693 1.73273,-13.05531 1.73271,-13.05531 1.71643,-11.27504 1.71644,-11.27504 1.25204,-10.08819 1.25205,-10.0882 -1.10597,-6.52765 -1.10599,-6.52766 -3.01593,-14.83558 -3.01594,-14.83558 -1.8063,-8.52576 -1.8063,-8.52575 -1.21413,-3.19343 -1.21413,-3.19341 -4.95743,0.79273 -4.95744,0.79272 -15.78486,4.93372 -15.78486,4.93372 -1.29221,-1.29221 -1.29223,-1.29223 -4.01237,-11.70459 -4.01239,-11.70459 -0.037,-1.89303 -0.037,-1.89303 2.07699,-1.81418 2.07698,-1.81417 4.74738,-1.48404 4.74739,-1.48405 14.83558,-5.32279 14.83558,-5.32278 2.37369,-0.96555 2.37369,-0.96553 5.93424,-2.08876 5.93423,-2.08874 2.15376,-1.43277 2.15375,-1.43279 2.34398,0.61297 2.34396,0.61296 1.80014,4.29995 1.80013,4.29994 2.98852,8.90135 2.9885,8.90135 1.54979,3.56054 1.54979,3.56053 3.58662,10.0882 3.58661,10.08819 0.84253,3.56054 0.84254,3.56054 1.73573,14.24216 1.73573,14.24215 0.99859,8.90135 0.99857,8.90135 1.16995,13.71209 1.16993,13.71208 -1.10107,5.27746 -1.10106,5.27745 -1.11433,6.52766 -1.11433,6.52765 -1.82947,8.90135 -1.82945,8.90135 -1.13496,5.93423 -1.13494,5.93423 -2.49182,11.86847 -2.49181,11.86846 -1.07108,6.3555 -1.07109,6.35551 -1.37412,1.65571 -1.37417,1.65574 -9.05273,-0.28348 -9.05274,-0.28349 z m -529.91292,-151.91688 -7.52945,-8.01121 -5.71399,-6.1028 -5.71399,-6.10281 v -1.9084 -1.90842 l 0.89014,-0.0428 0.89013,-0.0428 6.52766,-6.0229 6.52765,-6.0229 8.81711,-7.8797 8.8171,-7.87971 6.66643,-5.93423 6.66643,-5.93423 8.0966,-7.12108 8.09661,-7.12108 6.68444,-6.03737 6.68445,-6.03737 8.69274,-7.61136 8.69274,-7.61137 9.40667,-8.81622 9.40666,-8.81624 v -1.73743 -1.73742 l -5.28469,-6.0622 -5.28469,-6.06219 -4.78496,-5.3408 -4.78497,-5.34081 -0.0185,-0.89014 -0.0185,-0.89012 h -1.88686 -1.88686 l -3.65673,3.26383 -3.65674,3.26382 -5.86615,5.40849 -5.86617,5.40848 5.05296,6.75669 5.05297,6.7567 h 1.60941 1.6094 v -3.56054 -3.56054 h -0.93095 -0.93095 l -1.99634,-3.37951 -1.99632,-3.37951 2.16388,-2.25801 2.16388,-2.25801 3.22642,-2.74023 3.22642,-2.74023 1.48224,0.36654 1.48223,0.36653 7.32978,7.86574 7.32979,7.86574 v 1.80832 1.8083 l -7.3297,6.34838 -7.3297,6.34837 -4.09993,3.56054 -4.09993,3.56054 -3.49724,3.26383 -3.49726,3.26383 h -1.42873 -1.42874 l -14.79911,-17.31215 -14.7991,-17.31215 -1.0943,-2.79333 -1.09431,-2.79333 1.68773,-2.06064 1.68773,-2.06064 14.24216,-11.82308 14.24215,-11.82309 7.1603,-6.66029 7.16029,-6.66028 4.45275,-3.85725 4.45276,-3.85725 h 1.13228 1.13227 l 7.5943,8.01121 7.59428,8.01121 3.99074,4.69814 3.99074,4.69813 7.26999,7.76375 7.27,7.76376 10.98521,12.16517 10.98522,12.16518 h 1.03103 1.03105 v 2.16733 2.16735 l -4.45067,3.47018 -4.45067,3.47018 -30.85801,30.42457 -30.85801,30.42458 -14.24215,13.58984 -14.24216,13.58985 -15.98848,15.03118 -15.98848,15.03119 h -0.73596 -0.73596 z m 315.6649,4.72492 -3.03548,-3.24136 -20.10803,-18.95755 -20.10803,-18.95754 -14.07296,-13.68073 -14.07296,-13.68073 -22.64731,-22.84679 -22.64731,-22.8468 h -1.3227 -1.32272 l -3.79334,-3.91375 -3.79337,-3.91375 v -1.53292 -1.53292 l 5.04409,-5.08242 5.0441,-5.08243 8.40953,-9.35058 8.40953,-9.35058 11.90851,-13.05531 11.9085,-13.05531 5.2821,-5.63752 5.28211,-5.63752 h 1.45147 1.45145 l 6.17604,5.63752 6.17604,5.63752 2.37775,2.44557 2.37775,2.44558 8.29561,7.04919 8.29562,7.0492 1.32022,1.18685 1.32021,1.18684 5.81319,4.74545 5.81317,4.74546 3.34653,3.25716 3.34654,3.25717 -0.83045,2.61653 -0.83045,2.61652 -8.45032,9.56279 -8.45031,9.5628 -5.34081,6.38046 -5.34081,6.38046 -1.56833,1.62521 -1.56834,1.6252 h -1.26268 -1.26269 l -2.62987,-2.67041 -2.62988,-2.6704 -11.93964,-10.0882 -11.93963,-10.08819 -0.72598,-1.65125 -0.72598,-1.65125 7.14819,-7.44409 7.14817,-7.44407 v -1.28958 -1.28957 l 2.07698,0.004 2.07699,0.004 5.30993,4.57884 5.30993,4.57884 -1.49969,2.83573 -1.49967,2.83575 -1.63078,2.84044 -1.63078,2.84043 0.61791,1.61025 0.6179,1.61023 h 1.01307 1.01308 l 1.19236,-1.48356 1.19236,-1.48356 3.60182,-4.31065 3.60182,-4.31064 v -1.79457 -1.79457 l -9.19806,-7.82603 -9.19806,-7.82603 -1.34706,-0.0142 -1.34706,-0.0142 -1.76451,2.6704 -1.76452,2.67041 -7.9593,8.85557 -7.9593,8.85558 -1.08727,2.0316 -1.08727,2.03158 10.01142,9.75384 10.01143,9.75382 2.80512,1.90909 2.80513,1.90908 5.86924,5.4894 5.86926,5.48939 7.12108,6.21405 7.12107,6.21406 8.18288,7.2861 8.18287,7.28608 1.3119,1.23842 1.3119,1.2384 11.27504,10.02378 11.27504,10.02378 4.15396,3.72221 4.15396,3.72222 4.74739,4.29618 4.74738,4.29617 0.89014,0.006 0.89013,0.006 v 1.87922 1.87922 l -3.85725,3.86366 -3.85725,3.86364 -9.33674,10.27956 -9.33673,10.27955 -1.34489,-0.0224 -1.34487,-0.0224 -3.03547,-3.24136 z M 490.61431,364.67098 488.15448,361.5438 v -0.90499 -0.90501 l 10.97832,-10.79262 10.97833,-10.79262 2.3737,0.0336 2.37369,0.0336 11.15163,11.10074 11.15163,11.10074 -2.62782,3.69043 -2.62781,3.69042 h -1.8882 -1.88821 l -5.25651,-5.63752 -5.25652,-5.63752 -1.8123,-2.67041 -1.81231,-2.6704 h -1.49961 -1.49959 l -5.76769,6.82437 -5.7677,6.82436 -1.79427,1.44582 -1.79426,1.4458 -1.39742,0.0377 -1.39742,0.0378 -2.45983,-3.12718 z m -260.63696,-14.93718 -3.22104,-3.82798 -1.23137,-2.70257 -1.23137,-2.70256 h -0.99635 -0.99633 v -1.25805 -1.25804 l -3.85725,-5.2503 -3.85726,-5.2503 -4.74738,-7.22021 -4.74739,-7.22021 -6.52765,-9.96839 -6.52766,-9.96837 -4.58357,-6.55076 -4.58358,-6.55077 0.74532,-2.96956 0.74531,-2.96958 5.02511,-2.55719 5.02511,-2.5572 15.429,-10.08297 15.429,-10.08298 6.87001,-4.28681 6.87003,-4.28683 7.37213,-5.05863 7.37215,-5.05862 1.78026,-0.78046 1.78027,-0.78047 6.37946,-4.03265 6.37944,-4.03265 10.23641,-4.81869 10.23639,-4.81869 9.49477,-3.52205 9.49478,-3.52205 13.05531,-4.56971 13.05531,-4.56972 8.30792,-3.13261 8.30792,-3.13261 4.15397,-1.03944 4.15396,-1.03944 8.90135,-3.18539 8.90135,-3.18539 11.27504,-4.13632 11.27504,-4.13632 6.75994,-2.3644 6.75996,-2.36441 2.73481,0.70409 2.73483,0.70408 7.71106,9.82565 7.71107,9.82566 1.97847,2.37369 1.97849,2.37369 6.9263,8.55566 6.92631,8.55564 4.15396,5.48095 4.15396,5.48096 5.76898,7.32663 5.76898,7.32663 3.72579,4.54497 3.72579,4.54498 1.78027,3.83837 1.78027,3.83837 -0.10634,49.77213 -0.10634,49.77213 -1.69635,0.33091 -1.69633,0.33092 -4.72495,-4.84243 -4.72494,-4.84243 -0.0665,-41.86526 -0.0665,-41.86525 -7.37666,-9.99844 -7.37664,-9.99843 -9.54096,-12.46189 -9.54098,-12.46188 -4.1102,-5.5212 -4.1102,-5.52119 -1.83816,-0.70536 -1.83816,-0.70538 -12.07953,4.90751 -12.07952,4.90752 -7.42096,3.39603 -7.42096,3.39603 h -1.53973 -1.53973 l -1.12751,1.01196 -1.1275,1.01198 -19.58297,8.04709 -19.58296,8.04709 -13.64874,5.60232 -13.64873,5.60232 -11.27504,4.5389 -11.27504,4.53891 -2.08516,1.76086 -2.08515,1.76088 -2.34225,1.29221 -2.34226,1.29222 -23.09656,16.61585 -23.09656,16.61585 -0.0703,2.24145 -0.0701,2.24146 6.69511,10.22043 6.69512,10.22043 3.9865,5.94451 3.98651,5.94451 v 2.09551 2.09551 l -7.41779,5.35781 -7.41779,5.35781 -4.93615,2.92421 -4.93616,2.92421 z m 311.16699,3.00836 -0.81382,-0.81383 0.095,-50.75489 0.0948,-50.75489 3.03358,-4.50977 3.03359,-4.50977 6.68561,-8.30047 6.68561,-8.30048 1.18685,-1.5322 1.18685,-1.53219 1.20391,-1.44236 1.20391,-1.44238 4.11982,-5.34081 4.11983,-5.34081 1.20391,-1.30902 1.20391,-1.30902 4.74739,-6.15279 4.74739,-6.15279 6.92232,-8.56061 6.92233,-8.56062 3.67379,-4.45067 3.67379,-4.45068 h 2.78555 2.78557 l 6.20128,2.26215 6.2013,2.26212 11.86846,4.36157 11.86846,4.36157 16.02243,5.31834 16.02243,5.31835 2.37369,1.05349 2.37369,1.05348 5.34081,1.77523 5.34081,1.77521 7.12108,2.50121 7.12108,2.5012 8.30792,2.9996 8.30792,2.99958 2.3737,1.02689 2.37369,1.02688 5.93423,2.59567 5.93423,2.59568 7.12108,3.40566 7.12108,3.40566 11.53164,7.41549 11.53162,7.41549 14.93559,9.49477 14.93558,9.49477 2.01709,1.18685 2.01711,1.18684 5.93423,4.15396 5.93423,4.15397 2.37369,1.40855 2.3737,1.40855 4.96161,2.44078 4.9616,2.44079 0.75252,2.37098 0.75253,2.37099 -0.85911,1.49418 -0.85911,1.49418 -16.13006,24.33035 -16.13006,24.33035 -0.61237,0.59343 -0.61237,0.59342 -6.91317,10.38145 -6.91317,10.38146 -1.08316,0.66943 -1.08317,0.66943 -8.23659,-5.52616 -8.2366,-5.52614 -4.48772,-3.87934 -4.48772,-3.87934 5.4418,-8.17305 5.44179,-8.17305 5.17063,-8.30793 5.17063,-8.30792 0.92911,-0.39561 0.92912,-0.39563 v -2.27723 -2.27725 l -7.00763,-5.04164 -7.00762,-5.04164 -6.3444,-4.48052 -6.34439,-4.48049 -5.34081,-4.03811 -5.34081,-4.03809 -9.65108,-6.66345 -9.65108,-6.66346 -9.29823,-3.58043 -9.29823,-3.58042 -8.34815,-3.58138 -8.34816,-3.58136 -3.56054,-1.55939 -3.56054,-1.55939 -11.27504,-4.39644 -11.27504,-4.39645 -13.35666,-5.82215 -13.35667,-5.82214 h -0.70612 -0.70613 l -3.73991,-1.66415 -3.7399,-1.66414 -6.75087,-3.08325 -6.75088,-3.08323 h -1.78372 -1.78372 l -0.63825,-1.03271 -0.63825,-1.03271 -7.20435,-2.69425 -7.20436,-2.69425 -3.50248,3.35558 -3.50249,3.35559 -0.008,1.26151 -0.008,1.26151 -4.68069,4.74738 -4.68071,4.74739 -0.0583,1.33824 -0.0583,1.33823 -1.84518,1.53136 -1.84516,1.53135 -10.32001,14.11046 -10.32,14.11044 -2.07074,3.19635 -2.07072,3.19635 -0.006,41.44636 -0.006,41.44635 -5.36165,5.13737 -5.36165,5.13736 h -0.37477 -0.37479 l -0.81383,-0.81384 z m -92.31441,-34.62565 -3.99535,-4.58147 -5.34081,-6.36836 -5.3408,-6.36836 0.37359,-16.05092 0.37361,-16.05092 -3.75425,-5.64503 -3.75424,-5.64502 -4.8442,-4.14647 -4.84419,-4.14645 h -3.29292 -3.29293 l -8.06519,3.04757 -8.0652,3.04754 -3.56054,0.99592 -3.56054,0.99592 -13.05531,4.95202 -13.05531,4.95202 -7.12108,2.64042 -7.12108,2.6404 -2.96711,1.60785 -2.96712,1.60785 -7.7145,4.18284 -7.7145,4.18283 -7.12108,3.91694 -7.12108,3.91695 -1.78027,0.82313 -1.78027,0.82313 -4.42709,2.75711 -4.42709,2.75711 -2.10057,-0.0274 -2.10056,-0.0274 -6.82437,-10.58024 -6.82436,-10.58022 v -1.77065 -1.77065 l 9.65574,-7.72554 9.65573,-7.72555 6.66341,-2.58132 6.66339,-2.58132 3.56054,-1.55415 3.56054,-1.55414 4.74739,-1.71871 4.74738,-1.71872 14.24216,-5.65569 14.24215,-5.6557 7.71451,-2.92654 7.7145,-2.92653 3.56054,-1.48105 3.56054,-1.48106 8.90134,-3.60408 8.90135,-3.60408 7.24293,-2.50763 7.24294,-2.50762 h 2.98633 2.98632 l 6.38659,7.81203 6.38659,7.81202 3.86568,4.94657 3.86566,4.94658 1.17844,1.43346 1.17841,1.43347 v 1.09162 1.09161 l 1.77768,1.47533 1.77767,1.47535 4.74998,7.11315 4.74999,7.11316 v 30.12933 30.12934 h -1.64217 -1.64217 l -3.99535,-4.58147 z m 119.71881,-24.19954 0.32819,-28.78103 -0.008,-1.95722 -0.008,-1.95721 7.95065,-11.0981 7.95065,-11.09809 1.56208,-1.58629 1.56208,-1.58629 3.21821,-4.34794 3.21819,-4.34794 5.21594,-6.23095 5.21594,-6.23094 h 2.97606 2.97607 l 8.45151,3.01219 8.45152,3.01219 3.56054,1.62919 3.56054,1.62918 14.24215,5.52033 14.24216,5.52033 15.429,5.98356 15.42901,5.98355 5.85035,2.22633 5.85036,2.22632 1.21138,1.21138 1.21109,1.21138 h 1.93699 1.93698 l 7.91361,3.85725 7.91361,3.85725 7.0392,5.93423 7.03919,5.93424 0.68598,1.60783 0.68597,1.60783 -4.4611,7.12514 -4.46112,7.12512 -1.81853,3.03028 -1.81853,3.03028 -1.97822,1.24784 -1.97822,1.24783 -4.51118,-2.44489 -4.51117,-2.44489 -8.30792,-4.48531 -8.30793,-4.48531 -1.18685,-0.86051 -1.18684,-0.8605 -10.24674,-5.48204 -10.24672,-5.48204 -6.96255,-2.47143 -6.96254,-2.47143 -2.23407,-1.23232 -2.23406,-1.2323 -18.53575,-6.49009 -18.53574,-6.49009 -5.34081,-1.69684 -5.34081,-1.69682 -2.66698,-0.0128 -2.66699,-0.0128 -4.94532,4.45068 -4.9453,4.45067 -3.36604,4.62875 -3.36603,4.62875 v 17.02778 17.02778 l -4.38456,5.04751 -4.38456,5.04752 -5.36231,5.63752 -5.3623,5.63752 h -1.25449 -1.25448 l 0.32818,-28.78103 z m -77.74856,-5.84025 -1.45886,-1.45886 v -20.84128 -20.84129 l -2.71579,-2.95498 -2.71582,-2.95499 -3.51512,-4.91267 -3.51516,-4.91265 -7.7145,-9.52067 -7.7145,-9.52065 -2.37369,-3.29901 -2.37369,-3.299 -4.15397,-4.89118 -4.15396,-4.89118 -7.12108,-9.26584 -7.12107,-9.26585 -5.13704,-6.08974 -5.13703,-6.08973 -1.0694,-1.95316 -1.06939,-1.95315 7.39327,-7.61054 7.39328,-7.61053 7.01078,-7.64558 7.01079,-7.64558 8.41822,-8.93603 8.41821,-8.93604 4.74739,-5.06253 4.74738,-5.06252 0.59343,-19.826561 0.59342,-19.826566 h 8.90135 8.90135 l 0.32359,22.441188 0.32358,22.441189 -3.88412,3.72511 -3.88413,3.72509 -13.73799,14.77991 -13.73798,14.77991 -4.64927,5.34081 -4.64927,5.34081 -2.67927,2.61373 -2.67927,2.61374 v 1.14269 1.1427 l 2.32619,2.77122 2.32618,2.77123 10.9599,13.64873 10.95988,13.64874 0.66612,0.59342 0.66612,0.59342 4.93157,6.52766 4.93158,6.52765 2.77618,2.96712 2.77618,2.96712 3.28269,4.39622 3.2827,4.39623 -0.31558,32.97364 -0.31558,32.97366 -1.80497,0.34714 -1.80498,0.34713 z m 38.49832,0.59834 -0.79124,-0.79123 V 255.32986 222.7759 l 2.58449,-3.74375 2.58448,-3.74376 1.8662,-1.87059 1.86618,-1.87058 3.7215,-4.65707 3.7215,-4.65707 16.7516,-20.96744 16.7516,-20.96744 v -0.79897 -0.79897 l -2.22046,-1.97052 -2.22044,-1.97051 -14.09869,-15.36759 -14.09868,-15.36757 -2.96712,-3.20299 -2.96712,-3.203 -5.83331,-6.17389 -5.83331,-6.17389 -0.55036,-20.973762 -0.55035,-20.97376 1.82617,-1.515579 1.82616,-1.515579 8.11804,0.353372 8.11804,0.353371 0.32705,19.482689 0.32706,19.4827 7.98087,8.943548 7.98087,8.94356 2.96712,3.11675 2.96711,3.11677 16.02243,16.9416 16.02243,16.94159 0.40908,1.79126 0.40907,1.79125 -4.04157,4.31907 -4.04157,4.31908 -3.4687,4.74739 -3.46869,4.74738 -1.97297,2.37369 -1.97298,2.3737 -12.65728,16.02242 -12.65728,16.02243 -7.93971,9.94953 -7.93972,9.94954 -3.26383,3.85589 -3.26383,3.85587 v 19.64574 19.64572 l -1.15747,3.04438 -1.15747,3.04438 h -1.61183 -1.61185 z m -305.51454,-51.72672 -1.18129,-1.48356 -4.30485,-9.02588 -4.30485,-9.02589 v -1.86835 -1.86837 l 5.40031,-3.64462 5.4003,-3.64462 h 0.32826 0.32826 l 13.55769,-8.26644 13.55769,-8.26642 7.63361,-4.37424 7.63359,-4.37423 20.2573,-7.05426 20.25728,-7.05427 2.37369,-0.58052 2.3737,-0.58052 2.37369,-1.02829 2.37369,-1.02828 17.8027,-6.1254 17.80269,-6.12539 21.79854,-7.55254 21.79854,-7.55254 1.85628,-1.51386 1.85629,-1.51386 22.33547,-22.32097 22.33548,-22.320984 V 64.61828 40.482513 l 1.87734,-0.720404 1.87733,-0.720404 9.101,0.01816 9.10099,0.01816 1.55411,0.985604 1.55412,0.985617 -0.007,28.765584 -0.007,28.765596 -1.54737,1.871714 -1.54737,1.87173 -5.34081,5.86818 -5.34081,5.86819 -5.72322,6.10732 -5.72322,6.10732 -15.85888,16.05257 -15.85889,16.05256 -4.52851,1.57889 -4.52852,1.57887 -11.86846,4.53527 -11.86847,4.53527 -8.90135,3.14893 -8.90134,3.14893 -2.96712,1.25049 -2.96712,1.25047 -2.37369,0.95015 -2.37369,0.95016 -7.71375,2.52952 -7.71451,2.52949 -2.37369,1.07682 -2.37369,1.07682 -4.74739,1.6771 -4.74738,1.67711 -11.27504,4.16251 -11.27504,4.16252 -11.912,4.64671 -11.91201,4.64671 -12.09565,7.3485 -12.09564,7.34849 h -0.60159 -0.60157 l -6.24879,3.71513 -6.24877,3.71512 -4.94141,3.40595 -4.94141,3.40596 h -1.73762 -1.73764 z m 565.23608,-3.3482 -7.12107,-4.69372 -11.12332,-6.2156 -11.12332,-6.21558 -1.93199,-1.20197 -1.93199,-1.20196 -5.34081,-3.12149 -5.34081,-3.12149 -7.7145,-2.63684 -7.7145,-2.63684 -3.56054,-1.62025 -3.56054,-1.62025 -10.0882,-3.71667 -10.08819,-3.71665 -8.30793,-2.90004 -8.30792,-2.90002 -5.93423,-2.21376 -5.93423,-2.21375 -14.24216,-5.34406 -14.24216,-5.34405 -13.64873,-4.92178 -13.64873,-4.92177 -4.39058,-1.85078 -4.39057,-1.85078 -20.6464,-21.50679 -20.6464,-21.5068 -6.88547,-7.7145 -6.88547,-7.714502 0.11062,-28.968345 0.11061,-28.968345 1.54723,-0.981356 1.54723,-0.981344 9.64616,-0.01816 9.64615,-0.01816 1.39268,1.67807 1.39269,1.678082 -0.19831,23.451919 -0.19831,23.451918 24.17143,23.835903 24.17144,23.8359 21.95666,7.33404 21.95666,7.33404 18.98954,6.70628 18.98954,6.7063 3.56054,0.99031 3.56054,0.9903 18.39612,6.41731 18.39612,6.41729 4.74738,2.40871 4.74739,2.40873 2.96711,1.65209 2.96712,1.65209 18.39612,11.06045 18.39612,11.06043 2.84804,2.32893 2.84804,2.32891 -1.56006,4.72701 -1.56005,4.72701 -1.58469,1.31518 -1.5847,1.31518 -0.0868,1.93165 -0.0868,1.93166 -2.07989,3.56054 -2.0799,3.56054 -2.28403,0.2277 -2.28404,0.22769 -7.12107,-4.69373 z m -303.20768,-50.41207 -7.40882,-8.95681 -4.61929,-5.84386 -4.6193,-5.84384 0.0161,-1.51847 0.0161,-1.51848 12.40941,-12.7586 12.40943,-12.75859 h 1.28971 1.28972 l -0.36328,29.07689 -0.36327,29.07689 -1.3239,8.5e-4 -1.3239,8.4e-4 -7.40882,-8.95682 z m 42.40927,-19.23078 -0.60457,-28.1876 0.92414,-1.01312 0.92413,-1.01313 1.59794,1.01313 1.59794,1.01312 11.77993,12.15093 11.77992,12.15094 -1.56223,2.91906 -1.56223,2.91905 -9.41026,11.63405 -9.41027,11.63405 -1.9244,1.48356 -1.92441,1.48356 h -0.80054 -0.80054 z"
       id="path327" /></g></svg>
